<svg width="30" height="37" viewBox="0 0 30 37" fill="none" xmlns="http://www.w3.org/2000/svg">
<path d="M1.6665 30.8334V5.83341C1.6665 4.72835 2.10549 3.66854 2.88689 2.88714C3.66829 2.10573 4.7281 1.66675 5.83317 1.66675H26.6665C27.1085 1.66675 27.5325 1.84234 27.845 2.1549C28.1576 2.46746 28.3332 2.89139 28.3332 3.33341V33.3334C28.3332 33.7754 28.1576 34.1994 27.845 34.5119C27.5325 34.8245 27.1085 35.0001 26.6665 35.0001H5.83317C4.7281 35.0001 3.66829 34.5611 2.88689 33.7797C2.10549 32.9983 1.6665 31.9385 1.6665 30.8334ZM1.6665 30.8334C1.6665 29.7283 2.10549 28.6685 2.88689 27.8871C3.66829 27.1057 4.7281 26.6667 5.83317 26.6667H28.3332" stroke="#18181B" stroke-width="1.66667" stroke-linecap="round" stroke-linejoin="round"/>
</svg>
